<svg xmlns="http://www.w3.org/2000/svg" width="1200" height="900" viewBox="0 0 1200 900" fill="none" role="img" aria-label="Bindra Knowledge Hub campus placeholder">
  <defs>
    <linearGradient id="bg" x1="0" y1="0" x2="1" y2="1">
      <stop offset="0" stop-color="#FBF3E6"/>
      <stop offset="0.55" stop-color="#F3E2C7"/>
      <stop offset="1" stop-color="#E9CF9E"/>
    </linearGradient>
    <radialGradient id="glow" cx="0.7" cy="0.3" r="0.8">
      <stop offset="0" stop-color="#F6C453" stop-opacity="0.55"/>
      <stop offset="1" stop-color="#F6C453" stop-opacity="0"/>
    </radialGradient>
  </defs>
  <rect width="1200" height="900" fill="url(#bg)"/>
  <rect width="1200" height="900" fill="url(#glow)"/>
  <g opacity="0.9" fill="#B45309">
    <circle cx="320" cy="250" r="14"/>
    <circle cx="880" cy="180" r="10"/>
    <circle cx="980" cy="620" r="16"/>
    <circle cx="240" cy="640" r="9"/>
  </g>
  <g opacity="0.18" stroke="#7C3A06" stroke-width="3" fill="none">
    <path d="M120 720 Q300 640 480 720 T840 720 T1200 720"/>
    <path d="M120 770 Q300 690 480 770 T840 770 T1200 770"/>
  </g>
  <g transform="translate(600 450)" opacity="0.92">
    <circle r="86" fill="#FFFFFF" opacity="0.7"/>
    <circle r="86" fill="none" stroke="#B45309" stroke-width="4"/>
    <path d="M-34 -10 h18 l10 -26 12 52 14 -36 8 10 h26" fill="none" stroke="#B45309" stroke-width="6" stroke-linecap="round" stroke-linejoin="round"/>
  </g>
  <text x="600" y="620" text-anchor="middle" font-family="Plus Jakarta Sans, Arial, sans-serif" font-size="34" font-weight="700" fill="#7C3A06" opacity="0.65">Image placeholder</text>
</svg>
